<?xml version="1.0" encoding="utf-8"?>
<!-- Generator: Adobe Illustrator 27.0.0, SVG Export Plug-In . SVG Version: 6.00 Build 0)  -->
<svg version="1.1" id="Camada_1" xmlns="http://www.w3.org/2000/svg" xmlns:xlink="http://www.w3.org/1999/xlink" x="0px" y="0px"
	 viewBox="0 0 1920 1920" style="enable-background:new 0 0 1920 1920;" xml:space="preserve">
<style type="text/css">
	.st0{fill:#FFFFFF;}
</style>
<g>
	<g>
		<path class="st0" d="M1828.39,1828.39c-579.01,0-1157.93,0-1736.78,0c0-579.01,0-1157.93,0-1736.78c579.01,0,1157.93,0,1736.78,0
			C1828.39,670.62,1828.39,1249.54,1828.39,1828.39z M1110.09,1505.01c-5.12-3.66-8.43-5.73-11.4-8.21
			c-51.9-43.4-103.84-86.77-155.56-130.38c-10.26-8.65-21.28-12.08-34.84-12.39c-22.17-0.5-44.57-1.82-66.37-5.68
			c-66.54-11.78-127.87-37.75-184.74-73.69c-101.84-64.36-174.23-152.63-210.94-268.14c-34.9-109.84-34.62-220.17,9.53-326.86
			c78.9-190.68,225.9-297.78,426.67-332.55c90.72-15.71,180.48-5.87,267.22,25.71c134.34,48.92,234.56,136.26,296.16,266.21
			c8.03,16.93,14.54,34.59,21.67,51.94c2.42,5.87,5.4,11.34,12.62,11.39c21.39,0.15,42.79,0.25,64.17-0.22
			c7.65-0.17,10.7-4.97,8.83-12.48c-1.53-6.15-3.8-12.11-5.76-18.14c-32.94-101.52-87.76-189.37-168.75-258.99
			C1238.09,291.73,1073.69,245.39,890.6,264c-91.86,9.34-177.6,39.47-256.06,87.93C443.37,470,346.07,642.83,338.29,866.71
			c-0.33,9.6,2.15,19.28,3.16,28.94c2.09,20.12,2.93,40.45,6.34,60.34c6.76,39.39,19.28,77.19,34.4,114.18
			c89.95,220.04,302.79,346.28,492.34,361.36c8.04,0.64,17.17,4.6,23.29,9.91c82.36,71.5,168.34,138.47,254.5,205.25
			c12.72,9.86,26.75,14.68,42.43,15.14c30.55,0.91,47.75-20.78,40.43-50.45c-14.94-60.52-29.69-121.09-44.73-181.59
			c-21.24-85.44-43.14-170.72-63.72-256.32c-6.12-25.44-9.52-51.63-12.7-77.66c-1.54-12.65,1.61-25.21,10.17-35.8
			c49.42-61.15,98.62-122.48,148.14-183.54c11-13.56,12.18-27.13,4.19-42.5c-32.08-61.76-63.85-123.68-95.81-185.51
			c-7.33-14.19-18.75-18.27-33.26-11.73c-13.16,5.93-26.24,12.06-39.12,18.57c-59,29.85-117.89,59.93-176.93,89.7
			c-5.99,3.02-7.07,7.96-5.98,12.94c2.14,9.79,3.99,20.11,8.64,28.78c12.95,24.11,13.8,24.73,40.97,20.23
			c40.6-6.73,79.26-20.64,117.77-34.75c16.19-5.93,31.09,1.18,36.15,17.81c2.69,8.83,4.27,17.99,6.98,26.81
			c4.04,13.15-0.6,23.1-10.47,31.42c-3.09,2.61-6.26,5.13-9.52,7.51c-59.07,43.12-118.16,86.2-177.23,129.3
			c-15.58,11.37-26.59,26.44-34.66,43.7c-6.54,14-5.37,27.91,4.01,40.11c7.01,9.12,14.39,18.56,23.49,25.33
			c23.75,17.67,41.03,40.57,56.33,65.23c34.27,55.22,59.99,114.54,82.37,175.32c8.85,24.04,16.83,48.5,23.37,73.25
			c4.7,17.79,6.32,36.4,9.34,54.64C1105.17,1475.9,1107.43,1489.16,1110.09,1505.01z M952.09,1256.15
			c15.36,0.31,25.29-9.54,24.54-22.37c-0.23-3.9-1.58-7.92-3.22-11.53c-21.1-46.46-49.88-87.83-83.97-125.59
			c-24.44-27.07-28.45-59.28-8.35-89.76c8.26-12.53,19.28-23.95,31.09-33.29c46.23-36.59,93.24-72.19,140.06-108.04
			c4.56-3.49,7.4-6.34,2.23-11.6c-10.56-10.72-33.85-15.93-47.6-9.49c-14.62,6.85-29.58,13.43-43.07,22.17
			c-35.65,23.07-70.05,48.08-105.99,70.66c-22.39,14.07-46.24,26.06-70.27,37.19c-15.34,7.11-25.9,2.76-36.55-10.5
			c-2.53-3.15-4.69-6.61-7.28-9.7c-6.33-7.57-16.06-9.97-25.04-6.37c-8.84,3.54-14.76,11.52-13.28,21.14
			c4.98,32.44,11.65,64.63,34.08,90.28c15.58,17.81,32.38,34.59,49.06,51.41c19.62,19.79,31.06,43.17,31.1,71.13
			c0.02,12.47,5.32,20.96,14.63,27.76c5.11,3.74,10.3,7.84,16.1,10.09c29.02,11.21,58.22,21.93,87.43,32.62
			C943.17,1254.32,948.9,1255.32,952.09,1256.15z M865.33,883.89c4.4-1.2,9.38-1.45,13.09-3.75c14.65-9.09,29.32-18.26,43.17-28.51
			c9.7-7.18,10.31-13.51,4.16-24.13c-33.7-58.18-67.51-116.3-101.41-174.37c-6.43-11.02-13.06-12.13-23.41-4.34
			c-25.61,19.28-51.18,38.61-76.71,58c-9.53,7.24-10.24,13.4-2.49,22.5c41.02,48.15,82.18,96.19,123.09,144.44
			C850.36,880.26,856.71,883.53,865.33,883.89z M1030,661.82c4.85-1.35,7.42-1.8,9.78-2.76c31.25-12.8,62.51-25.56,93.66-38.58
			c11.31-4.73,14.03-13.86,7.52-24.76c-18.82-31.48-37.79-62.89-56.82-94.25c-5.74-9.46-12.81-11.68-22.79-7.07
			c-28.04,12.96-56.03,26.02-83.95,39.23c-10.2,4.82-13.16,12.9-8.12,22.83c16.21,31.92,32.48,63.81,49.32,95.4
			C1020.98,656.31,1026.65,658.99,1030,661.82z M693.1,742.86c-4.47,3.15-8.76,5.12-11.6,8.36c-10.69,12.15-20.98,24.66-31.27,37.15
			c-6.36,7.73-6.47,13.34-0.03,20.88c35.86,41.98,71.84,83.86,107.75,125.81c5.67,6.62,12.05,8.23,19.98,4
			c13.24-7.07,26.71-13.72,39.94-20.82c10.33-5.54,12.25-13.84,4.94-22.84c-39.21-48.22-78.53-96.34-118.04-144.31
			C702.06,747.79,697.59,745.95,693.1,742.86z M839.09,620.54c2.26,5.56,3.26,9.19,5.09,12.35c16.95,29.24,34.16,58.31,50.99,87.62
			c4.11,7.16,9.06,8.09,15.77,4.48c23.91-12.84,47.93-25.48,71.68-38.6c10.61-5.86,13.61-16.83,8-27.4
			c-15.15-28.57-30.4-57.09-45.81-85.52c-5.76-10.63-15.27-13.42-25.59-7.47c-23.26,13.42-46.55,26.83-69.35,41.01
			C845.14,609.95,842.44,616.19,839.09,620.54z M1531.83,771.56c0-0.02,0-0.04,0-0.06c-8.67,0-17.34-0.19-26,0.04
			c-12.92,0.35-15.39,3.84-13.84,16.7c2.48,20.59,4.66,41.23,6.61,61.88c0.73,7.69,4.5,11.71,11.98,12.06
			c7.5,0.35,15.03,0.24,22.54,0.3c10.98,0.09,21.99,0.76,32.92,0.07c11.69-0.73,16.64-5.87,15.69-16.84
			c-1.78-20.66-4.32-41.26-7.07-61.82c-1.03-7.66-5.82-12.4-14.23-12.35C1550.9,771.6,1541.36,771.56,1531.83,771.56z"/>
		<path d="M1110.09,1505.01c-2.67-15.84-4.92-29.11-7.12-42.38c-3.03-18.24-4.65-36.84-9.34-54.64
			c-6.53-24.75-14.52-49.21-23.37-73.25c-22.38-60.79-48.1-120.11-82.37-175.32c-15.3-24.65-32.59-47.55-56.33-65.23
			c-9.1-6.77-16.49-16.22-23.49-25.33c-9.38-12.2-10.55-26.11-4.01-40.11c8.07-17.25,19.08-32.33,34.66-43.7
			c59.08-43.1,118.17-86.19,177.23-129.3c3.26-2.38,6.44-4.91,9.52-7.51c9.87-8.32,14.5-18.28,10.47-31.42
			c-2.71-8.82-4.3-17.98-6.98-26.81c-5.06-16.63-19.96-23.74-36.15-17.81c-38.51,14.12-77.17,28.02-117.77,34.75
			c-27.17,4.51-28.03,3.89-40.97-20.23c-4.65-8.66-6.51-18.99-8.64-28.78c-1.09-4.98-0.01-9.92,5.98-12.94
			c59.04-29.77,117.92-59.86,176.93-89.7c12.88-6.51,25.96-12.64,39.12-18.57c14.51-6.54,25.93-2.46,33.26,11.73
			c31.95,61.83,63.72,123.75,95.81,185.51c7.98,15.37,6.8,28.94-4.19,42.5c-49.52,61.07-98.72,122.39-148.14,183.54
			c-8.56,10.59-11.71,23.15-10.17,35.8c3.17,26.03,6.58,52.21,12.7,77.66c20.59,85.6,42.48,170.88,63.72,256.32
			c15.04,60.5,29.79,121.07,44.73,181.59c7.32,29.67-9.88,51.35-40.43,50.45c-15.68-0.46-29.71-5.29-42.43-15.14
			c-86.16-66.78-172.14-133.75-254.5-205.25c-6.11-5.31-15.24-9.27-23.29-9.91c-189.55-15.08-402.4-141.31-492.34-361.36
			c-15.12-36.99-27.64-74.79-34.4-114.18c-3.41-19.89-4.25-40.22-6.34-60.34c-1-9.66-3.49-19.34-3.16-28.94
			C346.07,642.83,443.37,470,634.54,351.93c78.46-48.46,164.2-78.59,256.06-87.93c183.09-18.61,347.49,27.73,488.01,148.53
			c80.99,69.62,135.81,157.47,168.75,258.99c1.96,6.04,4.23,12,5.76,18.14c1.87,7.51-1.18,12.31-8.83,12.48
			c-21.38,0.47-42.78,0.37-64.17,0.22c-7.22-0.05-10.21-5.53-12.62-11.39c-7.14-17.35-13.65-35-21.67-51.94
			c-61.6-129.95-161.82-217.29-296.16-266.21c-86.73-31.58-176.5-41.42-267.22-25.71c-200.78,34.78-347.78,141.87-426.67,332.55
			c-44.15,106.7-44.43,217.02-9.53,326.86c36.71,115.51,109.1,203.78,210.94,268.14c56.87,35.94,118.2,61.91,184.74,73.69
			c21.8,3.86,44.2,5.18,66.37,5.68c13.56,0.31,24.58,3.74,34.84,12.39c51.72,43.62,103.66,86.98,155.56,130.38
			C1101.66,1499.28,1104.98,1501.34,1110.09,1505.01z"/>
		<path d="M952.09,1256.15c-3.19-0.83-8.92-1.83-14.3-3.8c-29.21-10.69-58.42-21.41-87.43-32.62c-5.81-2.24-10.99-6.35-16.1-10.09
			c-9.31-6.81-14.61-15.3-14.63-27.76c-0.04-27.96-11.48-51.34-31.1-71.13c-16.68-16.82-33.48-33.6-49.06-51.41
			c-22.44-25.65-29.1-57.85-34.08-90.28c-1.48-9.62,4.45-17.6,13.28-21.14c8.99-3.6,18.71-1.2,25.04,6.37
			c2.59,3.1,4.75,6.55,7.28,9.7c10.66,13.25,21.21,17.6,36.55,10.5c24.03-11.13,47.88-23.12,70.27-37.19
			c35.94-22.58,70.34-47.59,105.99-70.66c13.49-8.73,28.45-15.32,43.07-22.17c13.75-6.44,37.04-1.23,47.6,9.49
			c5.18,5.26,2.33,8.11-2.23,11.6c-46.82,35.84-93.83,71.45-140.06,108.04c-11.81,9.34-22.83,20.77-31.09,33.29
			c-20.1,30.48-16.09,62.69,8.35,89.76c34.09,37.76,62.87,79.13,83.97,125.59c1.64,3.6,2.99,7.63,3.22,11.53
			C977.38,1246.61,967.45,1256.46,952.09,1256.15z"/>
		<path d="M865.33,883.89c-8.62-0.36-14.97-3.63-20.5-10.15c-40.91-48.25-82.07-96.28-123.09-144.44c-7.75-9.1-7.04-15.26,2.49-22.5
			c25.53-19.39,51.09-38.73,76.71-58c10.35-7.79,16.97-6.68,23.41,4.34c33.9,58.07,67.71,116.19,101.41,174.37
			c6.15,10.61,5.54,16.95-4.16,24.13c-13.85,10.24-28.52,19.42-43.17,28.51C874.7,882.44,869.72,882.69,865.33,883.89z"/>
		<path d="M1030,661.82c-3.34-2.82-9.01-5.51-11.39-9.96c-16.84-31.59-33.11-63.48-49.32-95.4c-5.05-9.94-2.08-18.01,8.12-22.83
			c27.92-13.21,55.91-26.27,83.95-39.23c9.98-4.61,17.05-2.4,22.79,7.07c19.03,31.36,37.99,62.76,56.82,94.25
			c6.51,10.9,3.79,20.03-7.52,24.76c-31.15,13.03-62.42,25.79-93.66,38.58C1037.42,660.02,1034.85,660.47,1030,661.82z"/>
		<path d="M693.1,742.86c4.49,3.09,8.96,4.93,11.66,8.22c39.5,47.98,78.83,96.1,118.04,144.31c7.32,9,5.4,17.29-4.94,22.84
			c-13.23,7.1-26.7,13.74-39.94,20.82c-7.93,4.24-14.31,2.63-19.98-4c-35.91-41.94-71.89-83.82-107.75-125.81
			c-6.43-7.53-6.33-13.15,0.03-20.88c10.29-12.5,20.58-25,31.27-37.15C684.34,747.98,688.63,746.01,693.1,742.86z"/>
		<path d="M839.09,620.54c3.35-4.35,6.04-10.59,10.79-13.54c22.8-14.18,46.09-27.59,69.35-41.01c10.33-5.96,19.83-3.17,25.59,7.47
			c15.41,28.43,30.66,56.95,45.81,85.52c5.61,10.57,2.61,21.54-8,27.4c-23.75,13.12-47.77,25.76-71.68,38.6
			c-6.71,3.61-11.66,2.68-15.77-4.48c-16.83-29.3-34.04-58.38-50.99-87.62C842.35,629.73,841.35,626.09,839.09,620.54z"/>
		<path d="M1531.83,771.56c9.53,0,19.07,0.04,28.6-0.01c8.4-0.05,13.2,4.68,14.23,12.35c2.75,20.56,5.29,41.16,7.07,61.82
			c0.95,10.97-4,16.1-15.69,16.84c-10.93,0.69-21.95,0.02-32.92-0.07c-7.51-0.06-15.04,0.05-22.54-0.3
			c-7.47-0.35-11.25-4.36-11.98-12.06c-1.95-20.65-4.13-41.28-6.61-61.88c-1.55-12.87,0.93-16.35,13.84-16.7
			c8.66-0.23,17.33-0.04,26-0.04C1531.83,771.52,1531.83,771.54,1531.83,771.56z"/>
	</g>
</g>
</svg>
