<?xml version="1.0" encoding="utf-8"?>
<!-- Generator: Adobe Illustrator 27.0.0, SVG Export Plug-In . SVG Version: 6.00 Build 0)  -->
<svg version="1.1" id="Camada_1" xmlns="http://www.w3.org/2000/svg" xmlns:xlink="http://www.w3.org/1999/xlink" x="0px" y="0px"
	 viewBox="0 0 1920 1920" style="enable-background:new 0 0 1920 1920;" xml:space="preserve">
<style type="text/css">
	.st0{fill:#FFFFFF;}
</style>
<g>
	<path class="st0" d="M1110.09,1505.01c-2.67-15.84-4.92-29.11-7.12-42.38c-3.03-18.24-4.65-36.84-9.34-54.64
		c-6.53-24.75-14.52-49.21-23.37-73.25c-22.38-60.79-48.1-120.11-82.37-175.32c-15.3-24.65-32.59-47.55-56.33-65.23
		c-9.1-6.77-16.49-16.22-23.49-25.33c-9.38-12.2-10.55-26.11-4.01-40.11c8.07-17.25,19.08-32.33,34.66-43.7
		c59.08-43.1,118.17-86.19,177.23-129.3c3.26-2.38,6.44-4.91,9.52-7.51c9.87-8.32,14.5-18.28,10.47-31.42
		c-2.71-8.82-4.3-17.98-6.98-26.81c-5.06-16.63-19.96-23.74-36.15-17.81c-38.51,14.12-77.17,28.02-117.77,34.75
		c-27.17,4.51-28.03,3.89-40.97-20.23c-4.65-8.66-6.51-18.99-8.64-28.78c-1.09-4.98-0.01-9.92,5.98-12.94
		c59.04-29.77,117.92-59.86,176.93-89.7c12.88-6.51,25.96-12.64,39.12-18.57c14.51-6.54,25.93-2.46,33.26,11.73
		c31.95,61.83,63.72,123.75,95.81,185.51c7.98,15.37,6.8,28.94-4.19,42.5c-49.52,61.07-98.72,122.39-148.14,183.54
		c-8.56,10.59-11.71,23.15-10.17,35.8c3.17,26.03,6.58,52.21,12.7,77.66c20.59,85.6,42.48,170.88,63.72,256.32
		c15.04,60.5,29.79,121.07,44.73,181.59c7.32,29.67-9.88,51.35-40.43,50.45c-15.68-0.46-29.71-5.29-42.43-15.14
		c-86.16-66.78-172.14-133.75-254.5-205.25c-6.11-5.31-15.24-9.27-23.29-9.91c-189.55-15.08-402.4-141.31-492.34-361.36
		c-15.12-36.99-27.64-74.79-34.4-114.18c-3.41-19.89-4.25-40.22-6.34-60.34c-1-9.66-3.49-19.34-3.16-28.94
		C346.07,642.83,443.37,470,634.54,351.93c78.46-48.46,164.2-78.59,256.06-87.93c183.09-18.61,347.49,27.73,488.01,148.53
		c80.99,69.62,135.81,157.47,168.75,258.99c1.96,6.04,4.23,12,5.76,18.14c1.87,7.51-1.18,12.31-8.83,12.48
		c-21.38,0.47-42.78,0.37-64.17,0.22c-7.22-0.05-10.21-5.53-12.62-11.39c-7.14-17.35-13.65-35-21.67-51.94
		c-61.6-129.95-161.82-217.29-296.16-266.21c-86.73-31.58-176.5-41.42-267.22-25.71c-200.78,34.78-347.78,141.87-426.67,332.55
		c-44.15,106.7-44.43,217.02-9.53,326.86c36.71,115.51,109.1,203.78,210.94,268.14c56.87,35.94,118.2,61.91,184.74,73.69
		c21.8,3.86,44.2,5.18,66.37,5.68c13.56,0.31,24.58,3.74,34.84,12.39c51.72,43.62,103.66,86.98,155.56,130.38
		C1101.66,1499.28,1104.98,1501.34,1110.09,1505.01z"/>
	<path class="st0" d="M952.09,1256.15c-3.19-0.83-8.92-1.83-14.3-3.8c-29.21-10.69-58.42-21.41-87.43-32.62
		c-5.81-2.24-10.99-6.35-16.1-10.09c-9.31-6.81-14.61-15.3-14.63-27.76c-0.04-27.96-11.48-51.34-31.1-71.13
		c-16.68-16.82-33.48-33.6-49.06-51.41c-22.44-25.65-29.1-57.85-34.08-90.28c-1.48-9.62,4.45-17.6,13.28-21.14
		c8.99-3.6,18.71-1.2,25.04,6.37c2.59,3.1,4.75,6.55,7.28,9.7c10.66,13.25,21.21,17.6,36.55,10.5
		c24.03-11.13,47.88-23.12,70.27-37.19c35.94-22.58,70.34-47.59,105.99-70.66c13.49-8.73,28.45-15.32,43.07-22.17
		c13.75-6.44,37.04-1.23,47.6,9.49c5.18,5.26,2.33,8.11-2.23,11.6c-46.82,35.84-93.83,71.45-140.06,108.04
		c-11.81,9.34-22.83,20.77-31.09,33.29c-20.1,30.48-16.09,62.69,8.35,89.76c34.09,37.76,62.87,79.13,83.97,125.59
		c1.64,3.6,2.99,7.63,3.22,11.53C977.38,1246.61,967.45,1256.46,952.09,1256.15z"/>
	<path class="st0" d="M865.33,883.89c-8.62-0.36-14.97-3.63-20.5-10.15c-40.91-48.25-82.07-96.28-123.09-144.44
		c-7.75-9.1-7.04-15.26,2.49-22.5c25.53-19.39,51.09-38.73,76.71-58c10.35-7.79,16.97-6.68,23.41,4.34
		c33.9,58.07,67.71,116.19,101.41,174.37c6.15,10.61,5.54,16.95-4.16,24.13c-13.85,10.24-28.52,19.42-43.17,28.51
		C874.7,882.44,869.72,882.69,865.33,883.89z"/>
	<path class="st0" d="M1030,661.82c-3.34-2.82-9.01-5.51-11.39-9.96c-16.84-31.59-33.11-63.48-49.32-95.4
		c-5.05-9.94-2.08-18.01,8.12-22.83c27.92-13.21,55.91-26.27,83.95-39.23c9.98-4.61,17.05-2.4,22.79,7.07
		c19.03,31.36,37.99,62.76,56.82,94.25c6.51,10.9,3.79,20.03-7.52,24.76c-31.15,13.03-62.42,25.79-93.66,38.58
		C1037.42,660.02,1034.85,660.47,1030,661.82z"/>
	<path class="st0" d="M693.1,742.86c4.49,3.09,8.96,4.93,11.66,8.22c39.5,47.98,78.83,96.1,118.04,144.31
		c7.32,9,5.4,17.29-4.94,22.84c-13.23,7.1-26.7,13.74-39.94,20.82c-7.93,4.24-14.31,2.63-19.98-4
		c-35.91-41.94-71.89-83.82-107.75-125.81c-6.43-7.53-6.33-13.15,0.03-20.88c10.29-12.5,20.58-25,31.27-37.15
		C684.34,747.98,688.63,746.01,693.1,742.86z"/>
	<path class="st0" d="M839.09,620.54c3.35-4.35,6.04-10.59,10.79-13.54c22.8-14.18,46.09-27.59,69.35-41.01
		c10.33-5.96,19.83-3.17,25.59,7.47c15.41,28.43,30.66,56.95,45.81,85.52c5.61,10.57,2.61,21.54-8,27.4
		c-23.75,13.12-47.77,25.76-71.68,38.6c-6.71,3.61-11.66,2.68-15.77-4.48c-16.83-29.3-34.04-58.38-50.99-87.62
		C842.35,629.73,841.35,626.09,839.09,620.54z"/>
	<path class="st0" d="M1531.83,771.56c9.53,0,19.07,0.04,28.6-0.01c8.4-0.05,13.2,4.68,14.23,12.35
		c2.75,20.56,5.29,41.16,7.07,61.82c0.95,10.97-4,16.1-15.69,16.84c-10.93,0.69-21.95,0.02-32.92-0.07
		c-7.51-0.06-15.04,0.05-22.54-0.3c-7.47-0.35-11.25-4.36-11.98-12.06c-1.95-20.65-4.13-41.28-6.61-61.88
		c-1.55-12.87,0.93-16.35,13.84-16.7c8.66-0.23,17.33-0.04,26-0.04C1531.83,771.52,1531.83,771.54,1531.83,771.56z"/>
</g>
</svg>
